# xmcd CD database file
#
# Track frame offsets:
#	150
#	12350
#	26225
#	38100
#	50800
#	68487
#	83475
#	94662
#	107550
#	121912
#	134725
#	149075
#	162450
#	177512
#	191712
#	211087
#	226050
#	239687
#	251812
#	264950
#
# Disc length: 3718 seconds
#
# Revision: 2
# Processed by: cddbd v1.5.1PL0 Copyright (c) Steve Scherf et al.
# Submitted via: CdAid (MTCDDB.DLL V2003.12.21)
#
DISCID=210e8414
DTITLE=Various Artist - 20 All Time Western Favourites
DYEAR=1999
DGENRE=Country
TTITLE0=Gene Autry - Back In The Saddle Again
TTITLE1=Roy Rogers - Moonlight On The Prairie
TTITLE2=Sons Of The Pioneers - Rye Whiskey
TTITLE3=Tex Ritter - Sing, Cowboy Sing
TTITLE4=Bob Willis and His Texas Playboys - Little Joe The Wrangler
TTITLE5=Jimmie Rodgers - When The Cactus Is In Bloom
TTITLE6=Tennessee Ernie Ford - Cool Water
TTITLE7=Al Dexter - Pistol Packin' Mama
TTITLE8=Patsy Montana - I Want To Be A Cowboy's Sweetheart
TTITLE9=The Hooster Hot Shots - Sweet Sue
TTITLE10=Powder River Jack - Tying A Knot In The Devil's Tail
TTITLE11=Carl T. Sprague - When The Work's All Done This Fall
TTITLE12=Gene Autry - Tumbling Tumbleweeds
TTITLE13=Tex Ritter - Get Along Little Dogies
TTITLE14=The Arizona Wranglers - The Strawberry Roan
TTITLE15=Jimmie Rodgers - Prairie Lullaby
TTITLE16=Tex Owens - Cattle Call
TTITLE17=Bob Willis And His Playboys - Red River Valley
TTITLE18=Jimmie Davis - You Are My Sunshine
TTITLE19=Sons Of The Pioneers - There's A Roundup In The Sky
EXTD=ID3G:   2 YEAR: 1999
EXTT0=
EXTT1=
EXTT2=
EXTT3=
EXTT4=
EXTT5=
EXTT6=
EXTT7=
EXTT8=
EXTT9=
EXTT10=
EXTT11=
EXTT12=
EXTT13=
EXTT14=
EXTT15=
EXTT16=
EXTT17=
EXTT18=
EXTT19=
PLAYORDER=
